<svg width="481" height="47" viewBox="0 0 481 47" fill="none" xmlns="http://www.w3.org/2000/svg">
<g style="mix-blend-mode:overlay">
<path d="M0 20C0 8.95431 8.95431 3.8147e-06 20 3.8147e-06H92C103.046 3.8147e-06 112 8.95431 112 20V27C112 38.0457 103.046 47 92 47H20C8.9543 47 0 38.0457 0 27V20Z" fill="#3A3636"/>
<path d="M187.5 20C187.5 8.95431 196.454 3.8147e-06 207.5 3.8147e-06H279.5C290.546 3.8147e-06 299.5 8.95431 299.5 20V27C299.5 38.0457 290.546 47 279.5 47H207.5C196.454 47 187.5 38.0457 187.5 27V20Z" fill="#3A3636"/>
<path d="M369 20C369 8.95431 377.954 0 389 0H461C472.046 0 481 8.95431 481 20V27C481 38.0457 472.046 47 461 47L389 47C377.954 47 369 38.0457 369 27V20Z" fill="#3A3636"/>
</g>
</svg>
