<svg width="98" height="130" viewBox="0 0 98 130" fill="none" xmlns="http://www.w3.org/2000/svg">
<path d="M98 53.311C88.3667 53.3377 78.9696 49.8507 71.1363 43.3426V88.7322C71.1336 97.1389 68.9198 105.344 64.7908 112.251C60.6619 119.158 54.8146 124.437 48.0309 127.383C41.2471 130.328 33.8502 130.8 26.8293 128.735C19.8084 126.669 13.4981 122.165 8.7422 115.825C3.98629 109.484 1.01145 101.61 0.21547 93.254C-0.58051 84.8982 0.840307 76.4596 4.28794 69.0664C7.73557 61.6732 13.0457 55.6779 19.5082 51.8821C25.9708 48.0862 33.2778 46.6709 40.4521 47.8252V70.6546C37.1691 69.456 33.6438 69.4921 30.3795 70.7578C27.1153 72.0234 24.279 74.4538 22.2759 77.7019C20.2727 80.9501 19.205 84.8498 19.2253 88.8443C19.2455 92.8387 20.3527 96.7236 22.3887 99.9441C24.4247 103.165 27.2854 105.556 30.5623 106.777C33.8392 107.998 37.3646 107.986 40.6352 106.742C43.9058 105.499 46.7543 103.088 48.7738 99.8536C50.7934 96.6192 51.8808 92.7268 51.8807 88.7322V0H71.1363C71.1229 1.88736 71.2591 3.77214 71.5433 5.63053C72.2124 9.77909 73.6036 13.7256 75.6319 17.2287C77.6602 20.7318 80.2829 23.7178 83.3395 26.004C87.6882 29.3415 92.7867 31.1203 98 31.119V53.311Z" fill="white"/>
</svg>
